<?xml version="1.0" encoding="utf-8"?>
<svg version="1.1" xmlns="http://www.w3.org/2000/svg" viewBox="0 0 200 80" style="enable-background:new 0 0 200 80;" xml:space="preserve">
<style type="text/css">
	.st0{fill:#13151c;}
	.st1{fill:#1f222c;}
	.st2{fill:#8a90a0;}
</style>
<g id="Right_Trigger">
	<g id="rt">
		<g>
			<path class="st0" d="M149.2,61.6c13.3,5.6,28.6,16.6,36.2,10.6c2.8-2.2,3.6-5.8,3.8-8.7V17.4c0-0.2,0.6-5.4-3.5-8.5 c-3.7-2.8-8-1.5-8.4-1.4C125.1,7.4,73,7.4,20.8,7.3c-3-0.4-6.4-0.1-8.5,1.9c-5.6,5.5,1.3,21.1,6.8,29.6 c7.8,12,18.1,17.9,20.1,19.1C75.8,78.5,106.2,43.6,149.2,61.6z"/>
			<path class="st1" d="M160.7,70.3c18.2,6.7,23.3,3.7,25.2,2.1c2.7-2.3,3.6-5.8,3.8-8.7V17.5c0-6.6-5.4-12-12.1-12H20.7 c-1.3,0-7.1,0.3-8.9,3.9c-1.4,2.8,0.3,6.2,0.9,7.4C18.9,29,58.1,23.7,98.5,40c22.3,9,35.4,16.7,35.4,16.7 C140.8,60.8,148.4,65.8,160.7,70.3z"/>
		</g>
		<g id="rt_label" transform="translate(154.05, 34.0) scale(0.52) translate(-154.05, -34.0)">
			<path class="st2" d="M138.4,24.8v23.7h-9.6V16.1h12.4c3.8,0,6.7,0.9,8.8,2.8c2.3,2.1,3.5,4.7,3.5,7.9c0,3.3-1.4,6-4.3,8.3 l5.5,13.4h-10.1L139.8,38v-8.3h0.8c2,0,3-0.9,3-2.6c0-1.5-1.2-2.3-3.5-2.3H138.4z"/>
			<path class="st2" d="M171.9,25.4v23.1h-9.6V25.4h-7.4v-9.3h24.4v9.3H171.9z"/>
		</g>
	</g>
</g>
</svg>
